PathFileType	4	(X/Y/Z)	C:/Users/labor/Downloads/static_updated_hjc.trc	
DataRate	CameraRate	NumFrames	NumMarkers	Units	OrigDataRate	OrigDataStartFrame	OrigNumFrames	
200.00	200.00	4	69	mm	200.00	186	175	
Frame#	Time	FHD			LBHD			RBHD			RBAR			LBAR			RASI			RSACR			LSACR			LASI			USACR			C7			CLAV			T10			RSHO			LSHO			LTHI1			LTHI3			LTHI2			LTHI4			LLFC			LMFC			LTIB1			LTIB2			LTIB3			LTIB4			LMMAL			LLMAL			LHEE			LMT1			LMT5			LMT3			RTHI1			RTHI2			RTHI3			RTHI4			RLFC			RMFC			RTIB1			RTIB3			RTIB2			RTIB4			RLMAL			RMMAL			RHEE			RMT5			RMT1			RMT3			LMEP			LLEP			LDUPA			LMUPA			LUUPA			LUL			LRAD			LRFIN			RUL			RRAD			RUFIN			RMEP			RLEP			RMUPA			RDUPA			RUUPA			LAJC			RAJC			LKJC			RKJC			RHJC			LHJC			
		X1	Y1	Z1	X2	Y2	Z2	X3	Y3	Z3	X4	Y4	Z4	X5	Y5	Z5	X6	Y6	Z6	X7	Y7	Z7	X8	Y8	Z8	X9	Y9	Z9	X10	Y10	Z10	X11	Y11	Z11	X12	Y12	Z12	X13	Y13	Z13	X14	Y14	Z14	X15	Y15	Z15	X16	Y16	Z16	X17	Y17	Z17	X18	Y18	Z18	X19	Y19	Z19	X20	Y20	Z20	X21	Y21	Z21	X22	Y22	Z22	X23	Y23	Z23	X24	Y24	Z24	X25	Y25	Z25	X26	Y26	Z26	X27	Y27	Z27	X28	Y28	Z28	X29	Y29	Z29	X30	Y30	Z30	X31	Y31	Z31	X32	Y32	Z32	X33	Y33	Z33	X34	Y34	Z34	X35	Y35	Z35	X36	Y36	Z36	X37	Y37	Z37	X38	Y38	Z38	X39	Y39	Z39	X40	Y40	Z40	X41	Y41	Z41	X42	Y42	Z42	X43	Y43	Z43	X44	Y44	Z44	X45	Y45	Z45	X46	Y46	Z46	X47	Y47	Z47	X48	Y48	Z48	X49	Y49	Z49	X50	Y50	Z50	X51	Y51	Z51	X52	Y52	Z52	X53	Y53	Z53	X54	Y54	Z54	X55	Y55	Z55	X56	Y56	Z56	X57	Y57	Z57	X58	Y58	Z58	X59	Y59	Z59	X60	Y60	Z60	X61	Y61	Z61	X62	Y62	Z62	X63	Y63	Z63	X64	Y64	Z64	X65	Y65	Z65	X66	Y66	Z66	X67	Y67	Z67	X68	Y68	Z68	X69	Y69	Z69	

22	0.105	107.14524	931.78345	1723.56799	277.29254	852.27209	1699.33081	232.96741	1005.21161	1726.12341	2013.71313	2007.92322	28.11648	1903.37610	-212.59891	23.69630	158.96442	1062.55493	969.95367	348.73227	958.67615	977.03156	346.32681	916.42352	973.01001	154.33015	813.53040	974.56287	339.37854	933.53699	985.68237	319.46323	924.77496	1481.86902	164.11235	925.41412	1431.93567	333.65973	935.16309	1170.01013	299.79715	1086.48389	1467.96118	286.24149	764.17847	1461.64368	223.09966	732.61072	813.59052	190.39909	732.58191	790.97205	237.80746	724.24115	774.58313	192.27670	724.24188	726.54919	261.58719	743.03442	499.38254	236.72839	847.38403	469.67084	320.20294	730.96045	416.32904	296.44434	714.44098	377.94543	343.35199	728.14478	366.37610	309.40451	709.73267	313.43536	251.99658	822.21661	97.01913	282.05634	736.53717	76.62804	331.24881	786.11664	35.37856	111.38334	775.03784	41.08595	155.21234	703.85260	29.51299	128.89189	724.55402	33.67410	209.83578	1143.47424	817.41730	210.45308	1149.00854	784.93457	163.29503	1130.54419	781.79028	189.53050	1146.19421	721.87231	256.75983	1124.70239	500.68231	243.16049	1003.29431	482.85757	307.27167	1137.02979	432.93069	340.25641	1142.77063	382.70313	290.12265	1154.47778	385.49905	312.69986	1155.61328	323.65115	287.92496	1132.56104	82.81808	248.60464	1050.15381	100.41376	328.48642	1073.88074	33.15942	172.58224	1181.92773	28.86714	119.34157	1119.40320	46.03920	130.86798	1159.95410	35.02758	215.03009	503.07706	1296.15662	272.58569	489.96033	1395.06079	305.50543	564.20605	1388.90759	324.40759	623.03558	1381.72656	298.10529	635.67169	1422.35095	226.60651	233.09929	1363.68665	168.10649	248.01031	1341.10840	157.59734	154.11150	1351.28296	249.17348	1608.27014	1394.07117	198.88422	1593.21960	1398.35974	183.70212	1698.28247	1397.77466	234.78435	1357.82837	1298.53748	285.56949	1363.77185	1401.56799	322.38220	1267.23621	1400.20349	287.13086	1284.75623	1431.57336	315.97119	1210.39868	1425.55542	267.02646	779.37689	86.82358	268.26480	1091.35742	91.61592	249.15779	795.20923	484.52669	249.96016	1063.99835	491.76994	249.17148	998.04596	977.81802	246.85435	873.53369	980.12262 
23	0.110	107.18398	931.74658	1723.59094	277.34631	852.24115	1699.30957	233.00244	1005.19434	1726.13550	2013.78979	2007.83972	28.06136	1903.30859	-212.72260	23.76457	158.96115	1062.55920	969.95984	348.67163	958.70074	977.05273	346.32254	916.41754	973.00562	154.29776	813.53149	974.55634	339.37094	933.53046	985.68042	319.48907	924.75299	1481.85999	164.11919	925.40289	1431.94299	333.67343	935.14453	1170.01184	299.82043	1086.47754	1467.97107	286.23169	764.17230	1461.64063	223.09114	732.60095	813.59875	190.39265	732.58563	790.96429	237.81598	724.21265	774.59619	192.27910	724.29108	726.56177	261.58148	743.03308	499.37933	236.71317	847.38495	469.68329	320.18622	730.95923	416.32919	296.42825	714.45032	377.93784	343.35355	728.14557	366.38010	309.42615	709.73114	313.43182	251.82439	822.54303	97.15995	282.05841	736.54144	76.62432	331.13046	786.11810	35.27946	111.38042	775.03217	41.08646	155.21103	703.85388	29.51883	128.88525	724.55847	33.67699	209.83748	1143.47021	817.42096	210.44504	1149.00964	784.94952	163.28967	1130.54578	781.79370	189.53764	1146.18726	721.87250	256.76358	1124.71143	500.68393	243.15242	1003.30048	482.85553	307.28415	1137.01038	432.93277	340.21780	1142.74609	382.72534	290.13544	1154.48889	385.49292	312.70779	1155.60144	323.64877	287.92551	1132.56262	82.82787	248.66846	1050.20166	100.38647	328.48499	1073.87903	33.15656	172.61444	1181.87244	28.82601	119.33923	1119.41321	46.04786	130.85353	1159.99060	35.08340	215.04163	503.16187	1296.16980	272.61618	489.94467	1395.08618	305.50229	564.21625	1388.89819	324.40729	623.04248	1381.71375	298.11789	635.66760	1422.35254	226.61438	233.09256	1363.74976	168.12039	247.98706	1341.16162	157.60507	154.07198	1351.32947	249.14862	1608.26709	1394.14929	198.86217	1593.21777	1398.44104	183.68349	1698.26819	1398.03992	234.68391	1357.80859	1298.70276	285.48059	1363.71851	1401.42395	322.38678	1267.24829	1400.22351	287.15045	1284.75085	1431.61292	315.98749	1210.40820	1425.56592	266.94140	779.54224	86.89214	268.29698	1091.38214	91.60717	249.14732	795.20901	484.53131	249.95800	1064.00595	491.76973	249.16605	998.04483	977.82013	246.83435	873.53098	980.11838 
24	0.115	107.22878	931.70782	1723.61951	277.38663	852.22272	1699.28845	233.04675	1005.17981	1726.14758	2013.77063	2007.86670	28.03758	1903.42871	-212.55190	23.66490	158.96307	1062.56250	969.96594	348.64832	958.71057	977.05768	346.30505	916.39886	973.00317	154.29346	813.53870	974.54871	339.34738	933.53894	985.67957	319.48495	924.76245	1481.86987	164.12279	925.40900	1431.95386	333.68628	935.13831	1170.00452	299.85303	1086.46204	1467.97656	286.23114	764.16486	1461.65405	223.07698	732.60504	813.58893	190.37291	732.56909	790.97260	237.79482	724.23047	774.59558	192.27068	724.28613	726.55920	261.56665	743.03314	499.38501	236.71526	847.37280	469.67310	320.17950	730.97021	416.31909	296.42035	714.45697	377.93121	343.34967	728.13770	366.38373	309.40994	709.72015	313.42581	251.74252	822.37677	97.01332	282.05090	736.54840	76.62250	331.12955	786.11981	35.27761	111.38026	775.03113	41.09124	155.20877	703.85931	29.51158	128.89169	724.56073	33.67682	209.83427	1143.46790	817.42505	210.59190	1148.65002	784.66376	163.28564	1130.54504	781.79749	189.54170	1146.19214	721.87372	256.76489	1124.70422	500.68756	243.13377	1003.29950	482.85526	307.29404	1137.00317	432.93225	340.24203	1142.73535	382.72443	290.13501	1154.49219	385.50742	312.72705	1155.59326	323.65091	287.92715	1132.55579	82.82124	248.57829	1050.15356	100.40777	328.48480	1073.88464	33.14771	172.56378	1181.92993	28.87063	119.34349	1119.41504	46.04142	130.85638	1159.97278	35.06881	215.04778	503.15674	1296.15344	272.63654	489.93036	1395.11047	305.51758	564.21527	1388.89319	324.39630	623.04071	1381.69910	298.12585	635.66699	1422.35046	226.63062	233.08084	1363.80139	168.13208	247.97826	1341.21118	157.69937	154.05606	1351.34155	249.13112	1608.26221	1394.25122	198.83490	1593.21167	1398.52563	183.65863	1698.25171	1398.15295	234.65292	1357.82544	1298.76978	285.39935	1363.69202	1401.39063	322.39117	1267.25366	1400.24390	287.15240	1284.75574	1431.63562	315.99783	1210.41040	1425.57764	266.89671	779.46259	86.81791	268.25272	1091.35468	91.61450	249.14095	795.20297	484.52905	249.94933	1064.00186	491.77141	249.15523	998.05072	977.82275	246.82042	873.53882	980.11414 
25	0.120	107.27741	931.67224	1723.62781	277.43427	852.20190	1699.26306	233.09213	1005.14960	1726.15759	2013.79980	2007.85278	28.03650	1903.35767	-212.66190	23.74924	158.95459	1062.55469	969.97382	348.68643	958.66876	977.03314	346.30255	916.39514	972.99786	154.28201	813.52905	974.55499	339.33435	933.51721	985.67566	319.50827	924.74054	1481.86633	164.12398	925.42352	1431.95947	333.70578	935.12354	1169.99817	299.87311	1086.45618	1467.97681	286.22519	764.15698	1461.65735	223.06602	732.59845	813.59033	190.35927	732.57361	790.97345	237.71735	724.15546	774.58740	192.24524	724.21539	726.54913	261.56155	743.02985	499.37747	236.70331	847.37909	469.68567	320.16949	730.96326	416.32816	296.41153	714.44989	377.93356	343.34790	728.12793	366.38586	309.42050	709.72369	313.42007	251.72224	822.37665	97.01525	282.05569	736.54663	76.61488	331.24493	786.14807	35.38643	111.38114	775.04150	41.08788	155.20950	703.86334	29.51167	128.88388	724.55853	33.67359	209.82112	1143.45935	817.42700	210.58282	1148.65320	784.68011	163.28595	1130.53967	781.79346	189.54276	1146.19617	721.86487	256.76334	1124.68286	500.68329	243.11646	1003.29340	482.86142	307.28311	1136.99609	432.94312	340.25180	1142.72742	382.73044	290.14209	1154.47229	385.51968	312.71262	1155.57178	323.65030	287.92743	1132.55322	82.82638	248.67334	1050.20483	100.37386	328.49173	1073.87292	33.15196	172.62122	1181.85693	28.81789	119.34286	1119.43518	46.04599	130.85629	1159.98462	35.08116	215.06546	503.20850	1296.16064	272.65503	489.94073	1395.13232	305.53146	564.20844	1388.89331	324.38925	623.04761	1381.68445	298.13724	635.66046	1422.35315	226.64171	233.07826	1363.85828	168.14348	247.96948	1341.26794	157.79849	153.76622	1351.31311	249.09926	1608.26343	1394.34204	198.81346	1593.20471	1398.61365	183.61923	1698.23523	1398.26123	234.71295	1357.87500	1298.72021	285.40759	1363.70837	1401.44250	322.39505	1267.25732	1400.25977	287.14410	1284.74939	1431.65344	316.00681	1210.40491	1425.58337	266.88897	779.46164	86.81506	268.30038	1091.37903	91.60012	249.13243	795.20447	484.53157	249.93990	1063.98813	491.77235	249.14447	998.03595	977.82474	246.80818	873.52313	980.11533 
